<svg width="39" height="38" viewBox="0 0 39 38" fill="none" xmlns="http://www.w3.org/2000/svg">
<path d="M27.8516 27.3125H10.9L6.75859 4.54219C6.71014 4.2695 6.56789 4.02232 6.35647 3.84342C6.14504 3.66452 5.87773 3.56515 5.60078 3.5625H2.91406" stroke="black" stroke-width="2" stroke-linecap="round" stroke-linejoin="round"/>
<path d="M12.4141 33.25C14.0537 33.25 15.3828 31.9208 15.3828 30.2812C15.3828 28.6417 14.0537 27.3125 12.4141 27.3125C10.7745 27.3125 9.44531 28.6417 9.44531 30.2812C9.44531 31.9208 10.7745 33.25 12.4141 33.25Z" stroke="black" stroke-width="2" stroke-linecap="round" stroke-linejoin="round"/>
<path d="M27.8516 33.25C29.4912 33.25 30.8203 31.9208 30.8203 30.2812C30.8203 28.6417 29.4912 27.3125 27.8516 27.3125C26.212 27.3125 24.8828 28.6417 24.8828 30.2812C24.8828 31.9208 26.212 33.25 27.8516 33.25Z" stroke="black" stroke-width="2" stroke-linecap="round" stroke-linejoin="round"/>
<path d="M9.81641 21.375H28.4602C29.0153 21.3767 29.5532 21.1827 29.9794 20.827C30.4056 20.4714 30.6929 19.9769 30.7906 19.4305L32.6016 9.5H7.66406" stroke="black" stroke-width="2" stroke-linecap="round" stroke-linejoin="round"/>
</svg>
