<?xml version="1.0" encoding="UTF-8"?><svg id="Layer_2" xmlns="http://www.w3.org/2000/svg" width="1407.11" height="826.06" xmlns:xlink="http://www.w3.org/1999/xlink" viewBox="0 0 1407.11 826.06"><defs><style>.cls-1{fill:none;}.cls-2{clip-path:url(#clippath);}.cls-3{fill:#b3a658;}.cls-4{fill:#a64e3a;}.cls-5{fill:#d1541d;}.cls-6{fill:#c4804e;}.cls-7{fill:#e2a168;}.cls-8,.cls-9{fill:#723730;}.cls-10{fill:#646d59;}.cls-11{fill:#2e2d26;}.cls-12{clip-path:url(#clippath-1);}.cls-9{opacity:.47;}</style><clipPath id="clippath"><rect class="cls-1" x="499.22" y="667.06" width="120.91" height="159"/></clipPath><clipPath id="clippath-1"><rect class="cls-1" x="696.18" y="600.1" width="159" height="120.91" transform="translate(-137.86 1111.63) rotate(-66.7)"/></clipPath></defs><g id="Layer_1-2"><ellipse class="cls-11" cx="766.13" cy="689.5" rx="68" ry="3.5"/><ellipse class="cls-11" cx="567.13" cy="771.5" rx="68" ry="3.5"/><g class="cls-2"><path class="cls-10" d="M617.47,744.5l-.12,.24-.14,.07,.26-.31Z"/><polygon class="cls-5" points="617.2 744.83 601.55 762.83 590.78 763.47 584.76 769.72 558.72 772.31 532.62 740.35 531.15 740.11 514.26 717.9 513.09 716.47 529.88 691.16 538.16 690.17 554.64 690.17 561.95 675.73 592.08 672.07 593.14 675.07 566.07 694.37 572.48 706.72 599.18 692.31 599.69 693.77 573.46 708.56 580.12 721.42 605.35 709.92 606 711.77 580.5 724.88 581.03 726.12 586.17 737.98 606.32 729.66 611.52 727.53 612.32 729.81 608.15 732.09 588.64 742.79 595.79 754.77 617.2 744.83"/><path class="cls-5" d="M545.66,726.12h-6.4l1.63-2.8,4.77,2.8Z"/><path class="cls-11" d="M553.75,690.17h-3.11l-1.99-7-.28-1.03-4.31-15.08,7.8,1.3,1.9,21.81Z"/><path class="cls-3" d="M545.44,682.3c-.09,.07-.18,.16-.27,.23-2.59,2.21-5.86,3.67-9.41,4.1-1.83,.23-3.72,.19-5.64-.15-.38-.07-.76-.15-1.13-.23-5.28-1.26-9.49-4.66-11.83-8.99,3.95-3.51,9.53-5.22,15.33-4.18,5.52,.98,10.02,4.25,12.6,8.59,.12,.22,.24,.42,.35,.64Z"/><path class="cls-5" d="M1407.11,739.94l-15.65,18-10.77,.64-6.02,6.25-26.04,2.6-27.04-33.11,7.58-13.08h6.4l9.29,5.45,16.49-5.45,1.48-.49-29.82-27.16-28.83,19.43-1.17-1.43,16.79-25.31,8.27-.99h16.48l7.31-14.44,30.14-3.65,1.06,3-27.07,19.29,6.42,12.35,26.69-14.4,.52,1.45-26.23,14.8,6.66,12.85,25.23-11.49,.65,1.85-25.5,13.11,.53,1.24,5.14,11.86,20.15-8.31,5.19-2.13,.8,2.28-4.16,2.28-19.52,10.69,7.15,11.98,21.41-9.95Z"/><path class="cls-11" d="M1343.66,685.28h-3.11l-1.99-7-.28-1.03-4.31-15.08,7.8,1.3,1.9,21.81Z"/><path class="cls-3" d="M1335.35,677.42c-.09,.07-.18,.16-.27,.23-2.59,2.21-5.86,3.67-9.41,4.1-1.83,.23-3.72,.19-5.64-.15-.38-.07-.76-.15-1.13-.23-5.28-1.26-9.49-4.66-11.83-8.99,3.95-3.51,9.53-5.22,15.33-4.18,5.52,.98,10.02,4.25,12.6,8.59,.12,.22,.24,.42,.35,.64Z"/><path class="cls-5" d="M592.08,672.07l25.12,72.75-14.25,13-22.44,.18s-21.75-31.99-20.83-33.29-8.47-30.6-8.47-30.6l20.29-10.15,20.59-11.9Z"/></g><g class="cls-12"><path class="cls-10" d="M723.52,636.19l-.1-.12-.02-.27,.11,.39Z"/><polygon class="cls-5" points="723.53 636.21 730.78 658.93 740.42 663.78 743.47 671.91 766.37 684.59 802.98 665.56 804.43 665.92 828.72 652.2 830.36 651.36 824.95 621.47 817.75 617.28 802.61 610.76 801.61 594.61 775.38 579.33 773.22 581.67 790.45 610.09 779.67 618.9 760.86 595.11 759.81 596.24 778.05 620.21 766.85 629.38 748.22 608.84 746.9 610.28 765.13 632.41 764.15 633.34 754.74 642.2 739.52 626.59 735.59 622.58 733.95 624.35 736.87 628.1 750.57 645.64 739.26 653.82 723.53 636.21"/><path class="cls-5" d="M802.13,646.65l.39,3.21-5.88-2.53,5.49-.68Z"/><path class="cls-11" d="M813.79,591.83l7.68,1.89-9.93,12.14-.67,.84-4.6,5.64-2.85-1.23,10.37-19.28Z"/><path class="cls-3" d="M814.74,606.73c4.08-2.96,9.51-4.19,14.97-2.9,5.73,1.34,10.18,5.13,12.42,9.91-3.86,3.06-9.07,4.51-14.42,3.58-.37-.07-.75-.15-1.13-.23-1.9-.45-3.65-1.16-5.24-2.09-3.09-1.81-5.52-4.43-7.02-7.49-.06-.1-.1-.22-.16-.32,.19-.16,.38-.3,.58-.45Z"/><path class="cls-5" d="M15.73,336.83l11.3-8.18-13.69-17.54-2.92-3.74,1.64-1.78,3.93,4.01,15.22,15.61,9.41-8.86,.97-.93-18.23-22.13,1.33-1.44,18.62,20.54,11.2-9.17-18.24-23.97,1.05-1.13,18.82,23.79,10.78-8.8-17.23-28.43,2.16-2.34,26.23,15.28,1,16.16,15.13,6.52,7.21,4.18,5.41,29.89-1.64,.85-18.79-29.25-38.13,13.14,1.16,1.03,12.99,11.53,10.69-1.33,5.88,2.53,1.79,15.02-37.94,19.71-22.89-12.68-3.06-8.12-9.64-4.85-7.25-22.73,15.73,17.61Z"/><path class="cls-11" d="M90.26,274.85l7.68,1.89-9.93,12.14-.67,.84-4.6,5.64-2.85-1.23,10.37-19.28Z"/><path class="cls-3" d="M91.22,289.74c4.08-2.96,9.51-4.19,14.97-2.9,5.73,1.34,10.18,5.13,12.42,9.91-3.86,3.06-9.07,4.51-14.42,3.58-.37-.07-.75-.15-1.13-.23-1.9-.45-3.65-1.16-5.24-2.09-3.09-1.81-5.52-4.43-7.02-7.49-.06-.1-.1-.22-.16-.32,.19-.16,.38-.3,.58-.45Z"/><path class="cls-5" d="M775.38,579.33l-51.85,56.88,7.95,17.58,20.54,9.04s32.63-20.78,32.3-22.33,19.89-24.76,19.89-24.76l-14.62-17.35-14.2-19.07Z"/></g><polygon class="cls-11" points="512.55 22 501.98 29.55 501.98 44.92 507.27 55.16 457.44 96.74 505.76 136.75 809.99 132.22 809.99 47.48 512.55 22"/><polygon class="cls-11" points="538.97 266.09 474.86 342.99 502.74 368 805.67 368 809.99 266.09 538.97 266.09"/><polygon class="cls-11" points="778.39 146.05 846.13 222.96 816.67 247.97 496.59 247.97 492.03 146.05 778.39 146.05"/><polygon class="cls-4" points="681.02 0 649.13 777.02 620.03 777.02 649.13 0 681.02 0"/><polygon class="cls-9" points="681.02 0 649.13 777.02 635.62 777.02 667.09 0 681.02 0"/><polygon class="cls-7" points="512.55 14 501.98 21.55 501.98 36.92 507.27 47.16 457.44 88.74 505.76 128.75 809.99 124.22 809.99 39.48 512.55 14"/><polygon class="cls-7" points="538.97 257.09 474.86 333.99 502.74 359 805.67 359 809.99 257.09 538.97 257.09"/><polygon class="cls-7" points="778.39 137.05 846.13 213.96 816.67 238.97 496.59 238.97 492.03 137.05 778.39 137.05"/><g><path class="cls-8" d="M632.9,316.77h-8.74v-18.76h8.44c3.82,0,6.09,1.9,6.09,4.86,0,2.27-1.36,3.74-3.18,4.27,2.19,.45,3.61,2.38,3.61,4.52,0,3.1-2.27,5.1-6.23,5.1Zm-1.18-15.1h-2.99v3.93h2.99c1.5,0,2.32-.67,2.32-1.95s-.83-1.98-2.32-1.98Zm.32,7.27h-3.31v4.14h3.37c1.52,0,2.4-.69,2.4-2.03s-.94-2.11-2.46-2.11Z"/><path class="cls-8" d="M646.33,298.02v15.23h5.98v3.53h-10.55v-18.76h4.57Z"/><path class="cls-8" d="M663.37,316.96c-5.32,0-9.65-3.98-9.65-9.62s4.33-9.59,9.65-9.59,9.59,3.95,9.59,9.59-4.27,9.62-9.59,9.62Zm0-4.17c2.99,0,4.94-2.16,4.94-5.45s-1.95-5.45-4.94-5.45-4.97,2.11-4.97,5.45,1.92,5.45,4.97,5.45Z"/><path class="cls-8" d="M693,303.95h-5.05c-.69-1.26-1.98-1.92-3.69-1.92-2.94,0-4.89,2.08-4.89,5.34,0,3.47,1.98,5.5,5.26,5.5,2.27,0,3.85-1.2,4.54-3.31h-5.8v-3.37h9.94v4.25c-.96,3.23-4.09,6.47-9.03,6.47-5.61,0-9.56-3.93-9.56-9.54s3.93-9.56,9.54-9.56c4.49,0,7.75,2.3,8.74,6.15Z"/></g><g><path class="cls-8" d="M531.99,182.02v15.23h5.98v3.53h-10.55v-18.76h4.57Z"/><path class="cls-8" d="M551.84,197.46h-7l-1.12,3.31h-4.78l6.79-18.76h5.29l6.79,18.76h-4.84l-1.12-3.31Zm-3.5-10.39l-2.3,6.87h4.62l-2.32-6.87Z"/><path class="cls-8" d="M572.62,182.02h4.84l-6.65,18.76h-5.72l-6.65-18.76h4.86l4.65,14.16,4.68-14.16Z"/><path class="cls-8" d="M601.87,191.39c0,5.56-3.85,9.38-9.83,9.38h-7.03v-18.76h7.03c5.98,0,9.83,3.79,9.83,9.38Zm-10.13,5.42c3.45,0,5.48-1.98,5.48-5.42s-2.03-5.48-5.48-5.48h-2.16v10.9h2.16Z"/><path class="cls-8" d="M604.43,182.02h4.57v18.76h-4.57v-18.76Z"/><path class="cls-8" d="M629.09,182.02v18.76h-4.57l-7.64-11.57v11.57h-4.57v-18.76h4.57l7.64,11.62v-11.62h4.57Z"/><path class="cls-8" d="M649.55,185.68h-6.92v3.79h6.12v3.53h-6.12v4.11h6.92v3.66h-11.49v-18.76h11.49v3.66Z"/><path class="cls-8" d="M670.01,187.95h-5.05c-.69-1.26-1.98-1.92-3.69-1.92-2.94,0-4.89,2.08-4.89,5.34,0,3.47,1.98,5.5,5.26,5.5,2.27,0,3.85-1.2,4.54-3.31h-5.8v-3.37h9.94v4.25c-.96,3.23-4.09,6.47-9.03,6.47-5.61,0-9.56-3.93-9.56-9.54s3.93-9.56,9.54-9.56c4.49,0,7.75,2.3,8.74,6.15Z"/><path class="cls-8" d="M684.35,185.68h-6.92v3.79h6.12v3.53h-6.12v4.11h6.92v3.66h-11.49v-18.76h11.49v3.66Z"/><path class="cls-8" d="M704.1,182.02v18.76h-4.57l-7.64-11.57v11.57h-4.57v-18.76h4.57l7.64,11.62v-11.62h4.57Z"/><path class="cls-8" d="M721.72,181.8c4.46,0,7.83,2.51,8.9,6.57h-5.02c-.77-1.6-2.19-2.4-3.93-2.4-2.81,0-4.73,2.08-4.73,5.4s1.92,5.4,4.73,5.4c1.74,0,3.15-.8,3.93-2.4h5.02c-1.07,4.06-4.44,6.55-8.9,6.55-5.53,0-9.43-3.93-9.43-9.54s3.9-9.56,9.43-9.56Z"/><path class="cls-8" d="M733.42,182.02h4.57v18.76h-4.57v-18.76Z"/><path class="cls-8" d="M758.16,191.39c0,5.56-3.85,9.38-9.83,9.38h-7.03v-18.76h7.03c5.98,0,9.83,3.79,9.83,9.38Zm-10.13,5.42c3.45,0,5.48-1.98,5.48-5.42s-2.03-5.48-5.48-5.48h-2.16v10.9h2.16Z"/><path class="cls-8" d="M772.21,185.68h-6.92v3.79h6.12v3.53h-6.12v4.11h6.92v3.66h-11.49v-18.76h11.49v3.66Z"/><path class="cls-8" d="M782.84,182.02c4.6,0,6.89,2.65,6.89,5.9,0,2.35-1.28,4.57-4.17,5.42l4.33,7.43h-5.16l-3.9-7.08h-1.1v7.08h-4.57v-18.76h7.67Zm-.27,3.79h-2.83v4.65h2.83c1.71,0,2.51-.88,2.51-2.35,0-1.39-.8-2.3-2.51-2.3Z"/></g><g><path class="cls-8" d="M603.53,84.96c-5.32,0-9.65-3.98-9.65-9.62s4.33-9.59,9.65-9.59,9.59,3.95,9.59,9.59-4.27,9.62-9.59,9.62Zm0-4.17c2.99,0,4.94-2.16,4.94-5.45s-1.95-5.45-4.94-5.45-4.97,2.11-4.97,5.45,1.92,5.45,4.97,5.45Z"/><path class="cls-8" d="M615.65,66.02h5.4l5.26,12.99,5.21-12.99h5.37v18.76h-4.57v-11.25l-4.19,11.25h-3.69l-4.22-11.27v11.27h-4.57v-18.76Z"/><path class="cls-8" d="M654.49,65.8c4.46,0,7.83,2.51,8.9,6.57h-5.02c-.77-1.6-2.19-2.4-3.93-2.4-2.81,0-4.73,2.08-4.73,5.4s1.92,5.4,4.73,5.4c1.74,0,3.15-.8,3.93-2.4h5.02c-1.07,4.06-4.44,6.55-8.9,6.55-5.53,0-9.43-3.93-9.43-9.54s3.9-9.56,9.43-9.56Z"/><path class="cls-8" d="M666.19,66.02h4.57v18.76h-4.57v-18.76Z"/><path class="cls-8" d="M690.93,75.39c0,5.56-3.85,9.38-9.83,9.38h-7.03v-18.76h7.03c5.98,0,9.83,3.79,9.83,9.38Zm-10.13,5.42c3.45,0,5.48-1.98,5.48-5.42s-2.03-5.48-5.48-5.48h-2.16v10.9h2.16Z"/><path class="cls-8" d="M704.98,69.68h-6.92v3.79h6.12v3.53h-6.12v4.11h6.92v3.66h-11.49v-18.76h11.49v3.66Z"/><path class="cls-8" d="M715.61,66.02c4.6,0,6.89,2.65,6.89,5.9,0,2.35-1.28,4.57-4.17,5.42l4.33,7.43h-5.16l-3.9-7.08h-1.1v7.08h-4.57v-18.76h7.67Zm-.27,3.79h-2.83v4.65h2.83c1.71,0,2.51-.88,2.51-2.35,0-1.39-.8-2.3-2.51-2.3Z"/></g><circle class="cls-6" cx="514.13" cy="150" r="3"/><circle class="cls-6" cx="517.13" cy="115" r="3"/><circle class="cls-6" cx="523.13" cy="30" r="3"/><circle class="cls-6" cx="787.13" cy="50" r="3"/><circle class="cls-6" cx="790.13" cy="109" r="3"/><circle class="cls-6" cx="517.13" cy="230" r="3"/><circle class="cls-6" cx="766.13" cy="150" r="3"/><circle class="cls-6" cx="803.13" cy="220" r="3"/><circle class="cls-6" cx="793.13" cy="273" r="3"/><circle class="cls-6" cx="790.13" cy="348" r="3"/><circle class="cls-6" cx="517.13" cy="351" r="3"/><circle class="cls-6" cx="543.13" cy="270" r="3"/></g></svg>